<?xml version="1.0" encoding="iso-8859-1"?>
<!-- Generator: Adobe Illustrator 19.0.0, SVG Export Plug-In . SVG Version: 6.00 Build 0)  -->
<svg version="1.1" id="Layer_1" xmlns="http://www.w3.org/2000/svg" xmlns:xlink="http://www.w3.org/1999/xlink" x="0px" y="0px"
	 viewBox="0 0 512 512" style="enable-background:new 0 0 512 512;" xml:space="preserve">
<g transform="translate(1)">
	<polygon style="fill:#FFFFFF;" points="255,35.2 323.267,35.2 323.267,478.933 255,478.933 	"/>
	<path style="fill:#0096E6;" d="M331.8,487.467h-85.333v-460.8H331.8V487.467z M263.533,470.4h51.2V43.733h-51.2V470.4z"/>
	<path style="fill:#FFFFFF;" d="M255,60.8H15.213c-4.267,0-7.68,3.413-7.68,7.68V444.8c0,5.12,3.413,8.533,7.68,8.533H255V60.8
		L255,60.8z"/>
	<path style="fill:#0096E6;" d="M263.533,461.867H15.213C6.68,461.867-1,454.187-1,445.653V68.48c0-8.533,7.68-16.213,16.213-16.213
		h248.32V461.867z M15.213,69.333l0.853,376.32l230.4-0.853V69.333H15.213z"/>
	<path style="fill:#FFFFFF;" d="M399.213,60.8L459.8,94.933V419.2l-60.587,34.133h95.573c4.267,0,7.68-3.413,7.68-7.68V68.48
		c0-4.267-3.413-7.68-7.68-7.68H399.213L399.213,60.8z"/>
	<path style="fill:#0096E6;" d="M494.787,461.867h-128l84.48-47.787V100.053l-84.48-47.787h128c8.533,0,16.213,7.68,16.213,16.213
		V444.8C511,454.187,503.32,461.867,494.787,461.867z M431.64,444.8h62.293V68.48H431.64l36.693,21.333V424.32L431.64,444.8z"/>
	<path style="fill:#D0E8F9;" d="M323.267,18.987V493.44c0,0.853,0.853,0.853,1.707,0.853L459.8,418.347V94.08L324.973,18.133
		C324.12,18.133,323.267,18.133,323.267,18.987L323.267,18.987z"/>
	<path style="fill:#0096E6;" d="M324.12,502.827c-1.707,0-3.413-0.853-5.12-1.707c-2.56-1.707-5.12-5.12-5.12-8.533v-473.6
		c0-3.413,1.707-6.827,5.12-8.533c2.56-1.707,6.827-1.707,9.387,0L468.333,88.96v334.507L329.24,501.973
		C327.533,502.827,325.827,502.827,324.12,502.827z M331.8,31.787V480.64l119.467-67.413V99.2L331.8,31.787z"/>
	<path style="fill:#D0E8F9;" d="M255,94.933H52.76c-5.973,0-11.093,5.12-11.093,11.093v301.227c0,6.827,5.12,11.947,11.093,11.947
		H255V94.933L255,94.933z"/>
	<g>
		<path style="fill:#0096E6;" d="M263.533,427.733H52.76c-10.24,0-19.627-9.387-19.627-19.627v-302.08
			c0-10.24,9.387-19.627,19.627-19.627h210.773V427.733z M52.76,103.467c-0.853,0-2.56,1.707-2.56,2.56v301.227
			c0,1.707,1.707,3.413,2.56,3.413h193.707v-307.2H52.76z"/>
		<path style="fill:#0096E6;" d="M476.867,385.067h-25.6c-5.12,0-8.533-3.413-8.533-8.533s3.413-8.533,8.533-8.533h25.6
			c5.12,0,8.533,3.413,8.533,8.533S481.987,385.067,476.867,385.067z M476.867,359.467h-25.6c-5.12,0-8.533-3.413-8.533-8.533
			s3.413-8.533,8.533-8.533h25.6c5.12,0,8.533,3.413,8.533,8.533S481.987,359.467,476.867,359.467z M476.867,171.733h-25.6
			c-5.12,0-8.533-3.413-8.533-8.533s3.413-8.533,8.533-8.533h25.6c5.12,0,8.533,3.413,8.533,8.533S481.987,171.733,476.867,171.733z
			 M476.867,146.133h-25.6c-5.12,0-8.533-3.413-8.533-8.533c0-5.12,3.413-8.533,8.533-8.533h25.6c5.12,0,8.533,3.413,8.533,8.533
			C485.4,142.72,481.987,146.133,476.867,146.133z"/>
	</g>
	<polygon style="fill:#FFFFFF;" points="24.6,453.333 92.867,453.333 92.867,487.467 24.6,487.467 	"/>
	<path style="fill:#0096E6;" d="M101.4,496H16.067v-51.2H101.4V496z M33.133,478.933h51.2v-17.067h-51.2V478.933z"/>
	<polygon style="fill:#FFFFFF;" points="417.133,453.333 485.4,453.333 485.4,487.467 417.133,487.467 	"/>
	<g>
		<path style="fill:#0096E6;" d="M493.933,496H408.6v-51.2h85.333V496z M425.667,478.933h51.2v-17.067h-51.2V478.933z"/>
		<path style="fill:#0096E6;" d="M297.667,59.947c0,5.12-3.413,8.533-8.533,8.533c-5.12,0-8.533-3.413-8.533-8.533
			s3.413-8.533,8.533-8.533C294.253,51.413,297.667,55.68,297.667,59.947"/>
		<path style="fill:#0096E6;" d="M297.667,111.147c0,5.12-3.413,8.533-8.533,8.533c-5.12,0-8.533-3.413-8.533-8.533
			s3.413-8.533,8.533-8.533C294.253,102.613,297.667,106.88,297.667,111.147"/>
		<path style="fill:#0096E6;" d="M297.667,401.28c0,5.12-3.413,8.533-8.533,8.533c-5.12,0-8.533-3.413-8.533-8.533
			c0-5.12,3.413-8.533,8.533-8.533C294.253,392.747,297.667,397.013,297.667,401.28"/>
		<path style="fill:#0096E6;" d="M297.667,350.08c0,5.12-3.413,8.533-8.533,8.533c-5.12,0-8.533-3.413-8.533-8.533
			c0-5.12,3.413-8.533,8.533-8.533C294.253,341.547,297.667,345.813,297.667,350.08"/>
		<path style="fill:#0096E6;" d="M297.667,162.347c0,5.12-3.413,8.533-8.533,8.533c-5.12,0-8.533-3.413-8.533-8.533
			c0-5.12,3.413-8.533,8.533-8.533C294.253,153.813,297.667,158.08,297.667,162.347"/>
		<path style="fill:#0096E6;" d="M297.667,452.48c0,5.12-3.413,8.533-8.533,8.533c-5.12,0-8.533-3.413-8.533-8.533
			s3.413-8.533,8.533-8.533C294.253,443.947,297.667,448.213,297.667,452.48"/>
		<path style="fill:#0096E6;" d="M348.867,350.08h-8.533V162.347h8.533c37.547,0,68.267,30.72,68.267,68.267v51.2
			C417.133,319.36,386.413,350.08,348.867,350.08z M357.4,315.093v17.067c23.893-4.267,42.667-25.6,42.667-50.347v-51.2
			c0-25.6-18.773-46.08-42.667-50.347v17.067c14.507,3.413,25.6,17.067,25.6,33.28v51.2C383,298.027,371.907,310.827,357.4,315.093z
			 M357.4,216.107v81.067c5.12-2.56,8.533-8.533,8.533-14.507v-51.2C365.933,224.64,362.52,218.667,357.4,216.107z M263.533,316.8
			h-230.4v-128h230.4V316.8z M50.2,299.733h196.267v-93.867H50.2V299.733z"/>
	</g>
	<polygon style="fill:#FFFFFF;" points="75.8,120.533 212.333,120.533 212.333,197.333 75.8,197.333 	"/>
	<path style="fill:#0096E6;" d="M220.867,205.867h-153.6V112h153.6V205.867z M84.333,188.8H203.8v-59.733H84.333V188.8z"/>
	<polygon style="fill:#FFFFFF;" points="127,120.533 161.133,120.533 161.133,197.333 127,197.333 	"/>
	<g>
		<path style="fill:#0096E6;" d="M169.667,205.867h-51.2V112h51.2V205.867z M135.533,188.8H152.6v-59.733h-17.067V188.8z"/>
		<path style="fill:#0096E6;" d="M212.333,180.267h-51.2c-5.12,0-8.533-3.413-8.533-8.533c0-5.12,3.413-8.533,8.533-8.533h51.2
			c5.12,0,8.533,3.413,8.533,8.533C220.867,176.853,217.453,180.267,212.333,180.267z M127,180.267H75.8
			c-5.12,0-8.533-3.413-8.533-8.533c0-5.12,3.413-8.533,8.533-8.533H127c5.12,0,8.533,3.413,8.533,8.533
			C135.533,176.853,132.12,180.267,127,180.267z M212.333,154.667h-51.2c-5.12,0-8.533-3.413-8.533-8.533
			c0-5.12,3.413-8.533,8.533-8.533h51.2c5.12,0,8.533,3.413,8.533,8.533C220.867,151.253,217.453,154.667,212.333,154.667z
			 M127,154.667H75.8c-5.12,0-8.533-3.413-8.533-8.533c0-5.12,3.413-8.533,8.533-8.533H127c5.12,0,8.533,3.413,8.533,8.533
			C135.533,151.253,132.12,154.667,127,154.667z"/>
	</g>
	<polygon style="fill:#FFFFFF;" points="75.8,231.467 212.333,231.467 212.333,308.267 75.8,308.267 	"/>
	<path style="fill:#0096E6;" d="M220.867,316.8h-153.6v-93.867h153.6V316.8z M84.333,299.733H203.8V240H84.333V299.733z"/>
	<polygon style="fill:#FFFFFF;" points="127,231.467 161.133,231.467 161.133,308.267 127,308.267 	"/>
	<g>
		<path style="fill:#0096E6;" d="M169.667,316.8h-51.2v-93.867h51.2V316.8z M135.533,299.733H152.6V240h-17.067V299.733z"/>
		<path style="fill:#0096E6;" d="M212.333,291.2h-51.2c-5.12,0-8.533-3.413-8.533-8.533s3.413-8.533,8.533-8.533h51.2
			c5.12,0,8.533,3.413,8.533,8.533S217.453,291.2,212.333,291.2z M127,291.2H75.8c-5.12,0-8.533-3.413-8.533-8.533
			s3.413-8.533,8.533-8.533H127c5.12,0,8.533,3.413,8.533,8.533S132.12,291.2,127,291.2z M212.333,265.6h-51.2
			c-5.12,0-8.533-3.413-8.533-8.533s3.413-8.533,8.533-8.533h51.2c5.12,0,8.533,3.413,8.533,8.533S217.453,265.6,212.333,265.6z
			 M127,265.6H75.8c-5.12,0-8.533-3.413-8.533-8.533s3.413-8.533,8.533-8.533H127c5.12,0,8.533,3.413,8.533,8.533
			S132.12,265.6,127,265.6z"/>
	</g>
	<polygon style="fill:#FFFFFF;" points="75.8,342.4 212.333,342.4 212.333,419.2 75.8,419.2 	"/>
	<path style="fill:#0096E6;" d="M220.867,427.733h-153.6v-93.867h153.6V427.733z M84.333,410.667H203.8v-59.733H84.333V410.667z"/>
	<polygon style="fill:#FFFFFF;" points="127,342.4 161.133,342.4 161.133,419.2 127,419.2 	"/>
	<g>
		<path style="fill:#0096E6;" d="M169.667,427.733h-51.2v-93.867h51.2V427.733z M135.533,410.667H152.6v-59.733h-17.067V410.667z"/>
		<path style="fill:#0096E6;" d="M212.333,402.133h-51.2c-5.12,0-8.533-3.413-8.533-8.533c0-5.12,3.413-8.533,8.533-8.533h51.2
			c5.12,0,8.533,3.413,8.533,8.533C220.867,398.72,217.453,402.133,212.333,402.133z M127,402.133H75.8
			c-5.12,0-8.533-3.413-8.533-8.533c0-5.12,3.413-8.533,8.533-8.533H127c5.12,0,8.533,3.413,8.533,8.533
			C135.533,398.72,132.12,402.133,127,402.133z M212.333,376.533h-51.2c-5.12,0-8.533-3.413-8.533-8.533
			c0-5.12,3.413-8.533,8.533-8.533h51.2c5.12,0,8.533,3.413,8.533,8.533C220.867,373.12,217.453,376.533,212.333,376.533z
			 M127,376.533H75.8c-5.12,0-8.533-3.413-8.533-8.533c0-5.12,3.413-8.533,8.533-8.533H127c5.12,0,8.533,3.413,8.533,8.533
			C135.533,373.12,132.12,376.533,127,376.533z"/>
	</g>
</g>
<g>
</g>
<g>
</g>
<g>
</g>
<g>
</g>
<g>
</g>
<g>
</g>
<g>
</g>
<g>
</g>
<g>
</g>
<g>
</g>
<g>
</g>
<g>
</g>
<g>
</g>
<g>
</g>
<g>
</g>
</svg>
